<?xml version="1.0" encoding="UTF-8"?>
<!DOCTYPE svg PUBLIC "-//W3C//DTD SVG 1.1//EN" "http://www.w3.org/Graphics/SVG/1.1/DTD/svg11.dtd">
<!-- Creator: CorelDRAW -->
<svg xmlns="http://www.w3.org/2000/svg" xml:space="preserve" width="850px" height="850px" version="1.1" style="shape-rendering:geometricPrecision; text-rendering:geometricPrecision; image-rendering:optimizeQuality; fill-rule:evenodd; clip-rule:evenodd"
viewBox="0 0 850 850"
 xmlns:xlink="http://www.w3.org/1999/xlink"
 xmlns:xodm="http://www.corel.com/coreldraw/odm/2003">
 <defs>
  <style type="text/css">
   <![CDATA[
    .fil1 {fill:#FEFEFE}
    .fil0 {fill:url(#id0)}
   ]]>
  </style>
  <linearGradient id="id0" gradientUnits="userSpaceOnUse" x1="425" y1="850" x2="425" y2="0">
   <stop offset="0" style="stop-opacity:1; stop-color:#1AA8DC"/>
   <stop offset="0.490196" style="stop-opacity:1; stop-color:#AE3B89"/>
   <stop offset="1" style="stop-opacity:1; stop-color:#F26270"/>
  </linearGradient>
 </defs>
 <g id="Layer_x0020_1">
  <metadata id="CorelCorpID_0Corel-Layer"/>
  <circle class="fil0" cx="425" cy="425" r="425"/>
  <path class="fil1" d="M425 441c-62.5,0 -129,-15.4 -129,-44 0,-13.7 14.1,-25.3 40.8,-33.6 23.7,-7.4 55.1,-11.4 88.2,-11.4 64.1,0 129,15.5 129,45 0,13.3 -14,24.6 -40.4,32.7 -23.8,7.3 -55.3,11.3 -88.6,11.3z"/>
  <path class="fil1" d="M425 681c-33.1,0 -64.5,-4.1 -88.2,-11.4 -26.7,-8.3 -40.8,-19.9 -40.8,-33.6l0 -1.9c31.8,10.77 81.22,16.32 130.28,16.32 47.89,0 96.12,-5.37 127.72,-15.8l0 1.38c0,13.7 -14.1,25.3 -40.8,33.6 -23.7,7.3 -55.1,11.4 -88.2,11.4zm-129 -62.39l0 -32.15c4.91,1.62 10.29,3.14 16.16,4.56 30.32,7.3 70.49,11.4 112.84,11.4 42.35,0 82.52,-4.1 112.85,-11.4 5.86,-1.42 11.25,-2.94 16.15,-4.56l0 32.64c-23.46,9.17 -68.44,17.32 -127.72,17.32 -41.07,0 -79.45,-3.8 -107.98,-10.8 -9.26,-2.27 -16.6,-4.65 -22.3,-7.01zm0 -47.57l0 -32.45c32.21,10.4 81.51,15.83 129,15.83 42.6,0 82.91,-4 113.36,-11.3 5.66,-1.35 10.88,-2.8 15.64,-4.34l0 32.26c-23.62,9.19 -69.07,17.38 -129,17.38 -59.93,0 -105.38,-8.19 -129,-17.38zm0 -47.75l0 -32.7c32.21,10.4 81.51,15.83 129,15.83 42.6,0 82.91,-4 113.36,-11.3 5.66,-1.35 10.88,-2.8 15.64,-4.33l0 32.57c-5.61,2.17 -12.59,4.34 -21.02,6.36 -28.66,6.9 -67.04,10.7 -107.98,10.7 -40.43,0 -78.68,-3.8 -107.6,-10.7 -8.59,-2.05 -15.7,-4.24 -21.4,-6.43zm0 -48l0 -50.44c28.13,23.99 91.02,29.16 116.64,29.96 4.12,0.12 8.24,0.19 12.36,0.19 30.22,0 63.72,-3.03 92.71,-11.92 11.81,-3.62 26,-9.32 36.29,-18.17l0 50.45c-5.61,2.17 -12.59,4.34 -21.02,6.36 -28.66,6.9 -67.04,10.7 -107.98,10.7 -40.43,0 -78.68,-3.8 -107.6,-10.7 -8.59,-2.05 -15.7,-4.23 -21.4,-6.43z"/>
  <path class="fil1" d="M282 486.98c-28.07,-0.55 -54.79,-12.59 -75.4,-33.98 -20.1,-20.9 -31.6,-48.2 -31.6,-75 0,-47.2 24.3,-83.7 67,-100.8 0.2,-28.6 11.6,-55.7 32,-76.1 20.7,-20.7 48,-32.1 77,-32.1 45.5,0 85.4,27.3 101.4,68.5 9.3,-2.4 17.7,-3.5 25.6,-3.5 29.5,0 57,12.9 75.9,35.5 4.1,-0.5 8.2,-0.5 12.1,-0.5 29,0 56.3,11.4 76.9,32.1 20.6,20.7 32.1,47.9 32.1,76.9 0,29.3 -11.4,56.8 -32.1,77.3 -20.03,20.03 -46.55,31.18 -74.9,31.68l0 -89.98c0,0 0,0 0,-0.01 0,-2.52 -0.28,-5.03 -0.85,-7.49 -10.37,-45.37 -106.04,-51.5 -142.15,-51.5 -30.1,0 -63.53,3.05 -92.36,12.03 -21.64,6.75 -50.64,20.33 -50.64,46.97 0,0 0,0 0,0l0 89.98z"/>
 </g>
</svg>
