<?xml version="1.0" encoding="utf-8"?>
<!-- Generator: Adobe Illustrator 23.0.3, SVG Export Plug-In . SVG Version: 6.00 Build 0)  -->
<svg version="1.1" xmlns="http://www.w3.org/2000/svg" xmlns:xlink="http://www.w3.org/1999/xlink" x="0px" y="0px"
	 viewBox="0 0 256 256" style="enable-background:new 0 0 256 256;" xml:space="preserve">
<style type="text/css">
	.st0{fill:#878787;}
	.st1{fill:#F2E1D6;}
	.st2{fill:#FFFFFF;}
	.st3{fill:#F0C020;}
	.st4{fill:#F9E5AF;}
	.st5{fill:#72C1E8;}
	.st6{fill:#C5E5FF;}
	.st7{fill:#13BF6D;}
	.st8{fill:#76FFBA;}
	.st9{fill:#EFEFEF;}
	.st10{fill:#FC5D3D;}
	.st11{fill:#FFCBC2;}
	.st12{fill:#FFB69F;}
	.st13{fill:#AFAFAF;}
	.st14{fill:#7C7B7A;}
	.st15{fill:#D6C0B4;}
	.st16{fill:#7A7380;}
	.st17{fill:#F0AB20;}
	.st18{fill:#FBE0E2;}
	.st19{fill:#4C4945;}
	.st20{fill:#68B0D4;}
	.st21{fill:#B35034;}
	.st22{fill:#EDAF85;}
	.st23{fill:#139C6D;}
</style>
<g id="Layer_2">
</g>
<g id="Layer_1">
	<g>
		<g>
			<g>
				<g>
					<g>
						<path class="st5" d="M251.333,45.953v191.115c0,2.761-2.239,5-5,5H9.667c-2.761,0-5-2.239-5-5V45.953H251.333z"/>
					</g>
					<g>
						<circle class="st2" cx="128" cy="144.01" r="80.477"/>
					</g>
					<g>
						<path class="st13" d="M251.333,18.931v27.022H4.667V18.931c0-2.761,2.239-5,5-5h236.667
							C249.095,13.931,251.333,16.17,251.333,18.931z"/>
					</g>
					<g>
						<g>
							<circle class="st10" cx="23.756" cy="29.942" r="6.132"/>
						</g>
						<g>
							<circle class="st3" cx="47.402" cy="29.942" r="6.132"/>
						</g>
						<g>
							<circle class="st7" cx="71.048" cy="29.942" r="6.132"/>
						</g>
					</g>
				</g>
				<g>
					<path class="st6" d="M237,231h-49.5c-1.381,0-2.5-1.119-2.5-2.5s1.119-2.5,2.5-2.5h47V55c0-1.381,1.119-2.5,2.5-2.5
						s2.5,1.119,2.5,2.5v173.5C239.5,229.88,238.381,231,237,231z M177.5,231h-5.83c-1.381,0-2.5-1.119-2.5-2.5s1.119-2.5,2.5-2.5
						h5.83c1.381,0,2.5,1.119,2.5,2.5S178.881,231,177.5,231z"/>
				</g>
				<g>
					<path class="st6" d="M87.164,231h-69.54c-1.381,0-2.5-1.119-2.5-2.5s1.119-2.5,2.5-2.5h69.54c1.381,0,2.5,1.119,2.5,2.5
						S88.545,231,87.164,231z"/>
				</g>
			</g>
			<g>
				<g>
					<path class="st13" d="M159.919,112.556v13.776h-11.516v-13.776c0-11.248-9.155-20.403-20.403-20.403
						s-20.403,9.155-20.403,20.403v13.776H96.081v-13.776c0-17.629,14.289-31.919,31.919-31.919S159.919,94.927,159.919,112.556z"/>
				</g>
				<g>
					<path class="st10" d="M166.711,126.334H89.289c-3.729,0-6.752,3.023-6.752,6.752v54.546c0,3.729,3.023,6.752,6.752,6.752
						h77.422c3.729,0,6.752-3.023,6.752-6.752v-54.546C173.463,129.357,170.44,126.334,166.711,126.334z"/>
				</g>
				<g>
					<path class="st11" d="M164.367,187.936h-1.659c-1.381,0-2.5-1.119-2.5-2.5s1.119-2.5,2.5-2.5h1.659c1.381,0,2.5,1.119,2.5,2.5
						S165.748,187.936,164.367,187.936z M152.708,187.936H90.929c-1.381,0-2.5-1.119-2.5-2.5v-47.221c0-1.381,1.119-2.5,2.5-2.5
						s2.5,1.119,2.5,2.5v44.721h59.279c1.381,0,2.5,1.119,2.5,2.5S154.089,187.936,152.708,187.936z"/>
				</g>
				<g>
					<path class="st19" d="M136.555,152.552c0-4.725-3.83-8.555-8.555-8.555c-4.725,0-8.555,3.83-8.555,8.555
						c0,2.574,1.142,4.877,2.941,6.445v9.888c0,3.101,2.514,5.614,5.614,5.614s5.614-2.513,5.614-5.614v-9.888
						C135.413,157.429,136.555,155.126,136.555,152.552z"/>
				</g>
			</g>
		</g>
		<circle cx="4.67" cy="130.559" r="2.5"/>
		<path d="M246.333,11.431H9.667c-4.136,0-7.5,3.364-7.5,7.5c0,2.106,0.003,33.345,0.003,101.628c0,1.38,1.12,2.5,2.5,2.5
			s2.5-1.12,2.5-2.5v-0.01v-72.1h241.66v188.619c0,1.37-1.12,2.49-2.5,2.5H9.67c-1.38-0.01-2.5-1.13-2.5-2.5v-96.51
			c0-1.37-1.13-2.5-2.5-2.5c-1.38,0-2.5,1.13-2.5,2.5v96.51c0,4.131,3.36,7.49,7.5,7.5h236.66c4.14-0.01,7.5-3.369,7.5-7.5V45.982
			c0-0.01,0.003-0.019,0.003-0.029V18.931C253.833,14.795,250.469,11.431,246.333,11.431z M7.167,43.45V18.931
			c0-1.379,1.121-2.5,2.5-2.5h236.666c1.379,0,2.5,1.121,2.5,2.5V43.45H7.167z"/>
		<path d="M128,61.03c-45.904,0-82.98,37.243-82.98,82.979c0,45.74,37.06,82.98,82.98,82.98c45.776,0,82.97-37.089,82.97-82.98
			c0-7.12-0.9-14.19-2.68-21.01c-0.34-1.311-1.73-2.13-3.05-1.79c-1.332,0.353-2.125,1.689-1.79,3.05
			c1.68,6.41,2.529,13.06,2.529,19.75c-0.02,43.12-34.871,77.958-77.979,77.98c-43.193-0.022-77.98-34.964-77.98-77.98
			c0-43.013,34.787-77.959,77.98-77.979c28.359,0,54.52,15.439,68.27,40.279c0.65,1.17,2.23,1.63,3.4,0.98
			c1.21-0.67,1.649-2.19,0.979-3.4C186.023,77.453,158.268,61.03,128,61.03z"/>
		<path d="M200.42,115.049c0,0,0,0.01,0.01,0.01c0.489,1.236,1.868,1.905,3.25,1.4c1.271-0.521,1.9-1.98,1.39-3.26
			c-0.519-1.297-1.975-1.9-3.25-1.391C200.514,112.336,199.93,113.785,200.42,115.049z"/>
		<path d="M23.75,21.309c-4.75,0-8.63,3.87-8.63,8.63c0,4.761,3.88,8.63,8.63,8.63c4.76,0,8.64-3.869,8.64-8.63
			C32.39,25.179,28.52,21.309,23.75,21.309z M23.75,33.569c-1.99,0-3.62-1.63-3.63-3.63c0.01-2,1.64-3.63,3.63-3.63
			c2,0,3.63,1.63,3.64,3.63C27.38,31.939,25.75,33.569,23.75,33.569z"/>
		<path d="M47.399,21.309c-4.76,0-8.63,3.87-8.63,8.63c0,4.761,3.88,8.63,8.63,8.63c4.761,0,8.631-3.869,8.631-8.63
			C56.03,25.179,52.16,21.309,47.399,21.309z M47.399,33.569c-2,0-3.63-1.63-3.63-3.63s1.63-3.63,3.63-3.63s3.631,1.63,3.641,3.63
			C51.03,31.939,49.399,33.569,47.399,33.569z"/>
		<path d="M71.05,21.309c-4.76,0-8.63,3.87-8.63,8.63c0,4.761,3.87,8.63,8.63,8.63s8.63-3.869,8.63-8.63
			C79.68,25.179,75.81,21.309,71.05,21.309z M71.05,33.569c-2,0-3.63-1.63-3.64-3.63c0.01-2,1.64-3.63,3.64-3.63
			s3.63,1.63,3.63,3.63S73.05,33.569,71.05,33.569z"/>
		<path d="M196.58,27.439h-100c-1.38,0-2.5,1.12-2.5,2.5s1.12,2.5,2.5,2.5h100c1.38,0,2.5-1.12,2.5-2.5S197.96,27.439,196.58,27.439
			z"/>
		<path d="M237,27.439h-20.42c-1.38,0-2.5,1.12-2.5,2.5s1.12,2.5,2.5,2.5H237c1.38,0,2.5-1.12,2.5-2.5S238.38,27.439,237,27.439z"/>
		<circle cx="206.58" cy="29.939" r="2.5"/>
		<path d="M119.89,168.889c0,4.47,3.641,8.11,8.11,8.11s8.109-3.641,8.109-8.11v-8.84c1.9-2.05,2.95-4.71,2.95-7.5
			c-0.01-6.09-4.97-11.05-11.06-11.05s-11.05,4.96-11.061,11.05c0,2.79,1.051,5.45,2.95,7.5V168.889z M128,146.5
			c3.33,0,6.05,2.72,6.06,6.05c0,1.77-0.75,3.39-2.09,4.56c-0.54,0.48-0.86,1.171-0.86,1.891v9.89c0,1.71-1.399,3.11-3.109,3.11
			s-3.11-1.4-3.12-3.11V159c0-0.73-0.311-1.41-0.85-1.891c-1.351-1.17-2.091-2.79-2.091-4.56C121.95,149.219,124.67,146.5,128,146.5
			z"/>
		<path d="M128,78.137c-18.979,0-34.419,15.44-34.419,34.419v11.277h-4.292c-5.102,0-9.252,4.15-9.252,9.252v54.546
			c0,5.102,4.15,9.252,9.252,9.252h77.422c5.102,0,9.252-4.15,9.252-9.252v-54.546c0-5.102-4.15-9.252-9.252-9.252h-4.292v-11.277
			C162.419,93.578,146.979,78.137,128,78.137z M98.581,112.556c0-16.222,13.197-29.419,29.419-29.419s29.419,13.197,29.419,29.419
			v11.276h-6.517v-11.276c0-12.629-10.274-22.903-22.902-22.903s-22.902,10.274-22.902,22.903v11.276h-6.517V112.556z
			 M110.098,112.556c0-9.872,8.031-17.903,17.902-17.903s17.902,8.031,17.902,17.903v11.277h-35.805V112.556z M170.963,133.085
			v54.546c0,2.345-1.907,4.252-4.252,4.252H89.289c-2.345,0-4.252-1.907-4.252-4.252v-54.546c0-2.345,1.907-4.252,4.252-4.252
			h77.422C169.056,128.833,170.963,130.741,170.963,133.085z"/>
	</g>
</g>
</svg>
